<svg id="Layer_1" data-name="Layer 1" xmlns="http://www.w3.org/2000/svg" viewBox="0 0 839 60.4"><defs><style>.cls-1{fill:#82c460;}.cls-2{fill:#9b9aa0;}.cls-3{fill:#bdccd4;}.cls-4{fill:#70ab51;}.cls-5{fill:#333;}.cls-6{fill:#434343;}.cls-7{fill:#bfbfc1;}.cls-8{fill:#7b7c80;}.cls-10,.cls-12,.cls-13,.cls-9{fill:#fff;}.cls-9{opacity:0.3;}.cls-10{opacity:0.1;}.cls-11,.cls-12{opacity:0.2;}.cls-13{opacity:0.5;}</style></defs><path class="cls-1" d="M0,30.5C0,41.74,8.51,50.86,19,50.86H543L520,10.14H19C8.51,10.14,0,19.25,0,30.5Z"/><rect class="cls-2" x="551" y="0.35" width="119.96" height="59.85"/><rect class="cls-3" x="670.96" y="10.07" width="49.53" height="40.79"/><polygon class="cls-2" points="720 59.8 720 0.2 821.09 0.35 821.09 59.8 720 59.8"/><polygon class="cls-2" points="551 50.86 551 10.13 520 10.13 543 50.86 551 50.86"/><polygon class="cls-4" points="509.5 10.13 532 50.86 543 50.86 520 10.13 509.5 10.13"/><rect class="cls-5" x="821" y="10.14" width="9" height="40.73"/><rect class="cls-6" x="830" y="10.14" width="9" height="40.73"/><rect class="cls-5" x="698" y="10.14" width="9" height="40.73"/><rect class="cls-6" x="689" y="10.14" width="9" height="40.73"/><rect class="cls-6" x="671" y="10.14" width="9" height="40.73"/><rect class="cls-5" x="680" y="10.14" width="9" height="40.73"/><rect class="cls-6" x="707" y="10.14" width="9" height="40.73"/><rect class="cls-5" x="716" y="10.14" width="4" height="40.73"/><rect class="cls-7" x="551" y="0.35" width="11.13" height="59.85"/><rect class="cls-8" x="660" y="0.35" width="11.13" height="59.85"/><rect class="cls-7" x="720" y="0.35" width="11.13" height="59.85"/><rect class="cls-8" x="810" y="0.35" width="11.13" height="59.85"/><polygon class="cls-9" points="720 39.93 720 30.02 821 30 821 39.93 720 39.93"/><rect class="cls-9" x="551" y="30" width="120" height="9.93"/><rect class="cls-10" x="551" y="10.14" width="120" height="19.87"/><rect class="cls-10" x="720" y="10.14" width="101" height="19.87"/><rect class="cls-11" x="820.07" y="11.07" width="19.87" height="18" transform="translate(809.93 850.07) rotate(-90)"/><rect class="cls-11" x="671" y="10.14" width="49" height="19.87"/><rect class="cls-8" x="526.64" y="26.5" width="40.73" height="8" transform="translate(516.5 577.5) rotate(-90)"/><polygon class="cls-12" points="551 30 520.48 30 532 50.86 551 50.86 551 30"/><path class="cls-13" d="M17,35a5,5,0,0,0,5,5H526L521,30H22A5,5,0,0,0,17,35Z"/><path class="cls-8" d="M589,30a10,10,0,0,0,10,9.93h10a9.93,9.93,0,1,0,0-19.86H599A10,10,0,0,0,589,30Z"/><ellipse class="cls-4" cx="609" cy="30" rx="10" ry="9.93"/><ellipse class="cls-10" cx="606" cy="28.01" rx="4" ry="3.97"/></svg>