<svg id="Layer_1" data-name="Layer 1" xmlns="http://www.w3.org/2000/svg" viewBox="0 0 250 536"><defs><style>.cls-1{opacity:0.2;}.cls-2{fill:#fff;}.cls-3{fill:#e2e3e7;}.cls-4{fill:#323232;}.cls-5{fill:#313234;}.cls-6{opacity:0.3;}.cls-7{fill:#323234;}.cls-8{opacity:0.1;}.cls-9{opacity:0.5;}</style></defs><ellipse class="cls-1" cx="110.5" cy="513" rx="110.5" ry="23"/><path class="cls-2" d="M153.7,219.33V506H26V219.33A54.34,54.34,0,0,1,31.24,196a55.14,55.14,0,0,1,37-30.05l.15,0a53.82,53.82,0,0,1,7.45-1.21c1.65-.15,3.32-.23,5-.23H99.09a56.92,56.92,0,0,1,6.43.4,54.25,54.25,0,0,1,8.3,1.69c1.48.42,2.94.9,4.36,1.45a54.33,54.33,0,0,1,8.68,4.21h0a55.3,55.3,0,0,1,12.72,10.47A54.61,54.61,0,0,1,153.7,219.33Z"/><path class="cls-3" d="M153.7,219.33V234H26V219.33a55,55,0,0,1,54.85-54.85h18A55,55,0,0,1,153.7,219.33Z"/><rect class="cls-4" x="26" y="356" width="127.7" height="30"/><path class="cls-1" d="M89,164.48V506H26V219.33a55,55,0,0,1,54.85-54.85Z"/><path class="cls-2" d="M174.23,113.14a46.75,46.75,0,0,0-8.15-12.37,1.61,1.61,0,0,1-.44-1.1V98.1h2.05V74H158.5q.5-2.74.77-5.41c.08-.82.2-2,.28-3.61.4-8.28-.23-26-12.32-41.53C129,0,99.06,0,91.26,0A92,92,0,0,0,68.39,2.64a74,74,0,0,0-9,2.9A56.66,56.66,0,0,0,33.49,25.28C22.74,40.31,22.41,56.9,22.93,65c.11,1.52.23,2.75.33,3.61.2,1.77.47,3.58.82,5.41H14.23V98.1h2.58v1.57a1.62,1.62,0,0,1-.45,1.1,46.51,46.51,0,0,0-8.15,12.37c-1.85,3.77-4.21,9-4.21,13.24v4.77a5.9,5.9,0,0,0,.57,2.55c2,4.06,5.51,7.53,8.46,10.74s6.48,5.11,9.4,8.18a1.64,1.64,0,0,1,.34.55c.86,2.3,1.71,4.61,2.56,6.91l1.53,4.13a1.56,1.56,0,0,0,.39.59,1.59,1.59,0,0,0,2.33-.15l29.7-37.28.09.06a61.47,61.47,0,0,0,9,4.66,59.26,59.26,0,0,0,22.87,4.52,59.89,59.89,0,0,0,32-9.16l29.65,37.2a1.58,1.58,0,0,0,2.43,0,1.89,1.89,0,0,0,.28-.48l1.53-4.13,2.56-6.91a1.49,1.49,0,0,1,.34-.55c2.92-3.07,6.52-5.05,9.41-8.18s6.47-6.68,8.45-10.74a5.76,5.76,0,0,0,.57-2.55v-4.77C178.44,122.17,176.08,116.91,174.23,113.14Z"/><rect class="cls-5" x="17.84" y="65" width="146.84" height="9.03"/><path class="cls-3" d="M155.66,161.29a16.77,16.77,0,0,1-.36,3.4c-2.57,12-18.22,21.42-30.33,23.08-8.41,1.14-19-2.07-26.08-7.83H83.64c-.16.14-.33.27-.5.4a37.64,37.64,0,0,1-14.75,6.81,32.28,32.28,0,0,1-9,.8c-.62,0-1.22-.1-1.81-.18-12.08-1.65-27.67-11-30.31-23a16.48,16.48,0,0,1-.38-3.51c0-13.84,3-12.64,11.43-21.67,1.59-1.7,10.73-7,21-12.25h0l.09,0c3-1.54,6-3.07,9-4.52,8.56-4.13,16.6-7.58,20.47-8.34v-.12h.75a3.31,3.31,0,0,1,1,0h1.31a3.31,3.31,0,0,1,1,0h.75v.12c9.9,1.94,47.2,21.55,50.55,25.15C152.65,148.65,155.66,147.45,155.66,161.29Z"/><path class="cls-3" d="M91.26,74H21.45L38,77.8l2.44,11.8a3.62,3.62,0,0,0,1.28,2.09l1,.8a3.68,3.68,0,0,0,2.27.79h6.43a3.57,3.57,0,0,0,1.4-.28l6.55-2.73,23.47-12H99.69l23.47,12L129.71,93a3.54,3.54,0,0,0,1.4.28h6.42a3.64,3.64,0,0,0,2.27-.79l1-.8a3.62,3.62,0,0,0,1.28-2.09l2.44-11.8L161.07,74Z"/><path class="cls-4" d="M68.39,164.3a9,9,0,1,1-3-6.7A9,9,0,0,1,68.39,164.3Z"/><path class="cls-6" d="M68.39,164.3a9,9,0,0,1-14.45,7.21l-1.22-1.23L65.41,157.6A9,9,0,0,1,68.39,164.3Z"/><path class="cls-4" d="M131.59,164.3a9.05,9.05,0,1,1-3-6.7A9,9,0,0,1,131.59,164.3Z"/><path class="cls-6" d="M131.59,164.3a9,9,0,0,1-14.46,7.21l-1.22-1.23L128.6,157.6A9,9,0,0,1,131.59,164.3Z"/><path class="cls-7" d="M105.71,167.31a15.07,15.07,0,0,1-14.23,15h-.82a15,15,0,0,1,0-30.09h.6A15,15,0,0,1,105.71,167.31Z"/><path class="cls-2" d="M92.47,158.91v22.21a1.24,1.24,0,0,1-1,1.21h0l-.18,0h-.6a1.24,1.24,0,0,1-1.2-1.23V158.91a1.23,1.23,0,0,1,1.23-1.23h.57A1.23,1.23,0,0,1,92.47,158.91Z"/><rect class="cls-2" x="82.77" y="159.48" width="2.47" height="19.74" rx="1.24"/><rect class="cls-2" x="96.62" y="159.48" width="2.47" height="19.74" rx="1.24"/><path class="cls-8" d="M68.39,2.64V187.15a32.28,32.28,0,0,1-9,.8c-.62,0-1.22-.1-1.81-.18-12.08-1.65-27.67-11-30.31-23a1.56,1.56,0,0,1-.39-.59l-1.53-4.13c-.85-2.3-1.7-4.61-2.56-6.91a1.64,1.64,0,0,0-.34-.55c-2.92-3.07-6.52-5.05-9.4-8.18s-6.48-6.68-8.46-10.74A5.9,5.9,0,0,1,4,131.15v-4.77c0-4.21,2.36-9.47,4.21-13.24a46.51,46.51,0,0,1,8.15-12.37,1.62,1.62,0,0,0,.45-1.1V98.1H14.23V74h3.61V65h5.09c-.52-8.1-.19-24.69,10.56-39.72A56.66,56.66,0,0,1,59.37,5.54,74,74,0,0,1,68.39,2.64Z"/><path class="cls-9" d="M221,270v.77H153.7V278H136.83a19,19,0,0,1-24,29H26v-8h79.78A19,19,0,0,1,135,276.27V270Z"/><polygon points="243.51 263.06 243.51 270.48 243.66 270.48 243.66 270.77 53.35 270.77 53.35 247.51 76.62 247.51 76.62 230.6 142.16 230.6 142.16 247.51 147.97 247.51 153.7 237.51 153.86 237.23 159.08 237.23 159.08 232.71 180.22 232.71 180.22 247.51 195.02 247.51 195.02 232.71 199.25 232.71 199.25 237.09 206.4 237.09 206.4 247.51 243.51 247.51 243.51 254.71 250 254.71 250 263.06 243.51 263.06"/><circle class="cls-4" cx="123" cy="283" r="19"/><path class="cls-2" d="M112,266.81V299H20.41A11.41,11.41,0,0,1,9,287.59V207.41A11.41,11.41,0,0,1,20.41,196H34.85a11.42,11.42,0,0,1,11.42,11.41v59.4Z"/><path class="cls-4" d="M46.27,266.81,32.15,299H20.41A11.41,11.41,0,0,1,9,287.59V279.7Z"/><path class="cls-3" d="M51,207.41V229H4.27V207.41c0-6.3,6.41-11.41,14.31-11.41h18.1C44.58,196,51,201.11,51,207.41Z"/><path class="cls-8" d="M68,247.51V299H20.41A11.41,11.41,0,0,1,9,287.59V229H4.27V207.41c0-6.3,6.41-11.41,14.31-11.41h18.1c7.9,0,14.32,5.11,14.32,11.41V229H46.27v37.81h7.08v-19.3Z"/></svg>