<svg id="Layer_1" data-name="Layer 1" xmlns="http://www.w3.org/2000/svg" xmlns:xlink="http://www.w3.org/1999/xlink" viewBox="0 0 1920 1080"><defs><style>.cls-1{fill:#e1eac5;}.cls-2{fill:#a9b787;}.cls-3{fill:#8d9f6c;}.cls-4{fill:#cddab1;}.cls-5{fill:#b9c99b;}.cls-6,.cls-7{fill:#727f5b;}.cls-7{opacity:0.6;}.cls-22,.cls-8{fill:#ccd9b2;}.cls-8{opacity:0.2;}.cls-9{fill:#4f5a36;}.cls-10{fill:#374120;}.cls-11{fill:#bfbfbf;}.cls-12{fill:#b5b5b5;}.cls-13{fill:#868686;}.cls-14{fill:#a1a1a1;}.cls-15{fill:#ccc;}.cls-16{fill:#4d4d4d;}.cls-16,.cls-17,.cls-20{opacity:0.1;}.cls-17{fill:url(#linear-gradient);}.cls-18{fill:#7ea97d;}.cls-19{fill:#d6cfa3;}.cls-21{fill:none;}.cls-22{opacity:0.4;}.cls-23{fill:#333;}.cls-24{fill:#ffe81f;}</style><linearGradient id="linear-gradient" x1="735.52" y1="616.02" x2="1430.07" y2="1310.57" gradientUnits="userSpaceOnUse"><stop offset="0" stop-color="#666"/><stop offset="1" stop-color="#fff"/></linearGradient></defs><rect class="cls-1" width="1920" height="1080"/><rect class="cls-2" y="151" width="1920" height="929"/><path class="cls-3" d="M1920,731.58V1080H0V704s30.24-7,145.7,42.33q16.47,7,35.3,15.67c43.84,20.13,43.06,35.57,37.65,48.6C212,826.69,198.3,839.09,253,852.09c40.82,9.69,84,7.45,128.48-1,36.46-7,73.81-18.11,111.5-30.33q16.86-5.46,33.78-11.12c118.54-39.38,238.73-80,343.35-25.71q6,3.11,11.89,6.63c19.09,11.39,37.88,22.94,56.38,34.49,155.95,97.34,291.67,194.42,418.62,192.11,37.14-.68,76.54-3.18,116.24-7.32.86-.08,1.71-.17,2.57-.27,20.36-2.15,40.79-4.73,61-7.71l4.41-.65c14.34-2.16,28.57-4.52,42.6-7.07q6.17-1.11,12.27-2.29,14.6-2.77,28.81-5.84,6.83-1.47,13.54-3c14.16-3.22,28-6.65,41.26-10.26l1.53-.41c20.76-5.68,40.34-11.81,58.29-18.36l5.25-2,2.09-.79q5.07-1.94,9.94-3.9c7-2.86,13.78-5.78,20.17-8.77a143.79,143.79,0,0,0,14-7.56q3.35-2,6.58-4.22C1881.33,870,1920,731.58,1920,731.58Z"/><path class="cls-4" d="M1920,108.66,644.68,124.94,5.83,133.1,0,133.17V0L271,85s30.26-10.41,71.52-23.56c31-9.87,68.13-21.28,103.36-31,16.41-4.52,32.4-8.68,47.14-12.14,4.44-1,8.77-2,13-2.92h0C532,9.79,552.73,7,563,9c44.31,8.86,100,68,155,45S810,20.53,836.49,6.26,972,38,996,19c5.23-4.14,18.1-11.32,36.18-19H1296.4A175.44,175.44,0,0,1,1316,15c111,98,125-5,178,8S1735.21,0,1735.21,0H1920V108.66Z"/><path class="cls-5" d="M1920,108.66v42.89h0L758.7,176.26,8,192.23,0,192.4V0H358.53c26.41,10.13,56.23,20.56,87.35,30.45q12.18,3.87,24.6,7.62c12.58,3.8,25.27,7.47,37.95,11,29.55,8.16,59,15.38,86.66,21q11.29,2.29,22.16,4.21c23.37,4.12,45,6.86,63.75,7.75,84,4,215-1,264-24s165-56,300-25,195,48,259,21,63-35,182-35,234,14.09,234,14.09Z"/><path class="cls-6" d="M533,256c47,33-175,17-202,21s-339-7,9,13-273,37-46,65,80,64-52,73c-71.89,4.9-137.25,18.7-181.87,30.25C22.81,467.91,0,476,0,476V0H152l14,27c14,27,61,31,87,1C272.85,5.1,274,0,274,0h34s5,36,18,50c4.14,4.46,9.83,8.26,16.52,11.44C368.42,73.69,409.37,76.36,434,70c25.14-6.49,24.86-17.07,36.48-31.93A80.18,80.18,0,0,1,481,27a68.3,68.3,0,0,1,12-8.69c5.25-2.85,9.66-3.81,13-2.92h0c6.85,1.84,9,11.56,4,28.61-.56,1.92-1.08,3.59-1.57,5-4.91,14.8-5.89,8.19-.43,31,6,25,19,39,19,39l38-48,13,25,17.09-26L605,55s4.91,6.93,12.25,19.25C623.56,84.84,631.67,99.42,640,117a48.19,48.19,0,0,0,4.68,7.94C664.39,151.81,701.13,134,726,134c10.7,0,18.26,7.7,23.49,17,4.89,8.69,7.74,18.77,9.21,25.26.92,4.08,1.3,6.74,1.3,6.74C998,207,486,223,533,256Z"/><path class="cls-7" d="M1920,156c2.15-.19-350-18-755,0-147.72,6.57-209,16-183,22s874,6,743,41-372,90-241,94,339,51,339,51l97,58Z"/><path class="cls-6" d="M228,569c-77,4-125,20-125,20s-41,18-29,35,100-7.94,127,6.53,117.85,14.53,128.43,0S244,630.36,285,613.68s68.91-6.27,118-12S680,618,634,583s-222-70-154-79,121-35,191-21,197.83.17,152.41-17.91S749,430,806,428s78-8,38-23-438-33-308-46,145.83-38.77,287.41-36.38S1170,304,1037,298s-383.26-8-247-27,222-43,197-56-107.61-27.91-77-21c31,7,94,25,60,28-37.51,3.31-306.79,48-302,63s-45,21-54,24-203,20-174,32c44.82,18.55,49.84,67.47,104,57,93.09-18,275.06,63,135,40-90.82-14.89-176,9-229,24s-196,33-119,64,206,48,139,45S228,569,228,569Z"/><path class="cls-8" d="M1774.64,174c-108.36,10-96.64,57-142.58,91.92S1429,213,1342.12,204.66,1176,248,1143,276s-72-43-104-55-159,35-164,64,45,36,0,75S520,460,469,484s-31-55-115.66-105.72S0,333,0,335.38V460l104.2-38c104.2-38,135.8,15,194.5,13.47S352,511,366.34,575,555,519,628,515s195-50,251-63,92-98,121-139,110,61,180,33,122-25,239-7,251-10,252.89-10,194.11-47-14.23,30.89S1920,380.32,1920,380.32V174S1883,164,1774.64,174ZM1920,323c0,14.51-39,4-39,4s-74.29,45.31-109,46c-50,1,45.23-86,17-88-157-11,9-74,41-72l90-12Z"/><path class="cls-9" d="M258,1080H0V96.49c4.8,4.72,7.48,11.36,6.79,19.48q-.7,8.22-1,17.13-.25,8.64-.11,17.9c.19,12.92,1,26.69,2.23,41.23,6.45,73.56,26.07,166.52,52.18,266,11.44,43.57,24.12,88.4,37.48,133.39q5.67,19.13,11.51,38.26c11.92,39.15,24.24,78.2,36.58,116.43,7.88,24.38,15.76,48.43,23.56,72q7.25,21.87,14.37,43.1L188.88,877c.46,1.37.92,2.73,1.37,4.09,9.52,28.22,18.77,55.37,27.55,81.07q.85,2.48,1.69,4.94c8,23.32,15.55,45.42,22.59,66q6.18,18.08,11.77,34.54Z"/><path class="cls-10" d="M208.4,875.48c-5.79-.34-11.87,1.67-18.15,5.62-26.58,16.71-56.82,68-84.47,121.13-6.38,12.27-12.63,24.65-18.66,36.72l-2,3.92c-5.89,11.83-11.57,23.33-17,34.1l-1.52,3H0V886.85q2,15.66,3.93,31.33c3.13,25.07,6.12,50.16,8.71,75.34,4.74-30.51,9.3-59.88,15-89.41,4.22-21.79,9.07-43.67,15.08-66.14a809.21,809.21,0,0,1,29.69-89.72,822.69,822.69,0,0,0-18.57,88.1c-3.07,19.75-5.39,39.06-7.24,58.2q-1.56,16.25-2.74,32.36-.74,9.84-1.37,19.69c-1.18,18.1-2.17,36.25-3.22,54.69a206.8,206.8,0,0,1,9.87-22c2.53-4.87,5.2-9.66,8.1-14.82,10.37-18.43,23.65-41.62,43.62-90.54l.35-.86-.23.83C81.68,944.75,73.8,967.07,68.26,994.8c-1.51,7.63-2.86,15.67-4.22,25.25,2.84-4.32,5.71-8.68,8.62-13,5.31-8,10.72-16,16.2-23.89,4.7-6.77,9.43-13.47,14.2-20C133,921.88,163.81,886.54,188.88,877,195.88,874.34,202.44,873.69,208.4,875.48Z"/><path class="cls-10" d="M243,955.61c-8,.28-15.88,4.49-23.55,11.5-11.53,10.52-22.62,27.37-33,46.68q-1.17,2.16-2.32,4.35c-10.36,19.72-20,41.63-28.82,61.86H68.7c-.16-1-.33-2-.5-3-5.4-32.7-12.3-65.17-19-97.67-2.25-10.89-4.49-21.79-6.65-32.7-3-15.26-5.89-30.54-8.43-45.88-.35-2.09-.69-4.17-1-6.26.62,1.94,1.24,3.88,1.88,5.82,2.88,8.9,5.88,17.77,8.94,26.63,4.35,12.55,8.85,25.07,13.38,37.57,3.66,10.11,7.35,20.21,11,30.32q2.22,6.11,4.4,12.21c4.27,11.93,8.47,23.88,12.5,35.86q.95,2.79,1.87,5.58,0-4.77.09-9.5c.19-18.89.51-37.25,1.74-55.83,2.12-32.42,7-65.48,18.7-103.1a431.28,431.28,0,0,0-4.5,83.08c.49,13.22,1.48,26.19,2.72,39.13,1.58,16.44,3.6,32.82,5.58,49.54,7.27-25,18.9-32.69,37.58-90.21-9.92,62.75-13.74,70.78-13.5,101,13.59-21.9,28.7-45,44.14-64.08l.69-.86c12.52-15.38,25.24-28.12,37.53-35.48C226.5,957,235,954.46,243,955.61Z"/><path class="cls-10" d="M213.34,1080h-13.5c-5.42-20.57-10.77-41.16-15.71-61.86q-2.35-9.79-4.55-19.63c-.51-2.23-1-4.46-1.49-6.7.72,2,1.45,3.89,2.18,5.84q3,8.08,6.18,16.14C195.09,1036,204.21,1058,213.34,1080Z"/><path class="cls-10" d="M255.38,1080h-15c-.06-15.3.4-30.8,1.69-46.88A492.56,492.56,0,0,1,251.29,970a516.84,516.84,0,0,0,2.56,97.66Q254.56,1073.87,255.38,1080Z"/><path class="cls-10" d="M298.7,1055.2c-.7,9.28-1.35,17.48-2,24.8h-4.08C294.59,1072.75,296.61,1064.56,298.7,1055.2Z"/><path class="cls-10" d="M392.09,1041c-12.64,1.53-24.19,13.78-34.74,31.81-1.36,2.31-2.69,4.71-4,7.19l-1.18,2.27c-.19-.75-.39-1.51-.58-2.27h-11q4.1-5.79,8.22-10.93,2.37-2.94,4.75-5.63C366.41,1048.91,379.45,1040.08,392.09,1041Z"/><path class="cls-10" d="M360.27,1080h-6.93l-1.18,2.27c-.19-.75-.39-1.51-.58-2.27q-1.4-5.46-2.77-10.93c-3.81-15.21-7.46-30.47-10.81-45.81,5,13.46,10.21,26.84,15.56,40.18q1.88,4.68,3.79,9.37Q358.8,1076.41,360.27,1080Z"/><path class="cls-10" d="M411.84,1080H401a493.82,493.82,0,0,1,10.21-78.56A503.78,503.78,0,0,0,411.84,1080Z"/><path class="cls-10" d="M552,1072.45c-5.44.66-10.69,3.31-15.74,7.55h-6.69C537.11,1074.69,544.62,1071.91,552,1072.45Z"/><path class="cls-10" d="M579.74,1080h-7.19c-5.82-12.75-11.32-26.28-16.48-40.86C563.63,1053.76,571.54,1067.28,579.74,1080Z"/><path class="cls-10" d="M700.49,1080H690.13c2.48-26.18,9.16-46.42,23.11-53.6C702,1035.31,699,1055.17,700.49,1080Z"/><path class="cls-10" d="M1772,937.54c-5.5,1.32-10.54,4.72-15.18,9.77a68.72,68.72,0,0,0-7.9,10.7q-1.87,3.06-3.64,6.47c-14.76,28.4-24.75,74.22-32.91,115.52h-95.45c-10.56-28.81-21.91-57.31-33.08-85.89-10.45-26.76-20.75-53.58-30.08-80.79,13.46,26.49,27.88,52.51,42.35,78.5,14,25.15,28.08,50.28,41.4,75.77-4.93-27.69-9.64-54.12-12.59-81.61a501.72,501.72,0,0,1-1-102.75c1.63,36.55,7.1,68.86,14.49,99.75,5.55,23.23,12.18,45.66,19.07,68.47.6,2,1.2,4,1.8,5.94q1.35,4.47,2.71,9a123.6,123.6,0,0,1,1.87-14.06c.39-2.06.83-4.08,1.3-6.12,3.72-16.21,9.68-33.19,14.51-73.46q.58-4.92,1.15-10.32.21,5.18.38,9.91c2.24,60.21.61,70.18,6.58,100.9,14.69-42.84,32.76-89.88,53.6-115.79q1.95-2.43,3.92-4.6c.51-.55,1-1.09,1.53-1.61C1754.89,942.92,1763.27,937.92,1772,937.54Z"/><path class="cls-10" d="M1504.32,1080H1490.9c-6.14-23.33-12.2-46.68-17.66-70.19q-2.06-8.76-4-17.57,3.21,8.67,6.55,17.3C1484.92,1033.17,1494.62,1056.58,1504.32,1080Z"/><path class="cls-10" d="M1546.49,1080h-14.93a518.43,518.43,0,0,1,5.28-78.17c1.48-10.15,3.34-20.59,5.62-31.4-.75,10.54-1.13,20.78-1.21,30.75A556.2,556.2,0,0,0,1546.49,1080Z"/><path class="cls-10" d="M1589.87,1055.63c-.68,9.1-1.33,17.16-1.94,24.37h-4C1585.84,1072.86,1587.82,1064.8,1589.87,1055.63Z"/><path class="cls-10" d="M1683.25,1041.43c-6.75.81-13.19,4.69-19.33,10.87q-2.31,2.33-4.58,5.09a138.37,138.37,0,0,0-14.6,22.61h-12.68c8.39-11.82,16.94-21.73,25.48-28.55a58.5,58.5,0,0,1,7.68-5.27C1671.28,1042.72,1677.31,1041,1683.25,1041.43Z"/><path class="cls-10" d="M1865.11,1080h-24.37c-18.62-48.66-35.78-95.57-49.7-149-6.15-23.63-11.67-48.54-16.4-75.44,7.08,25.23,14.78,48.78,23,71.22C1817.77,981.83,1840.92,1030.18,1865.11,1080Z"/><path class="cls-10" d="M1834,1080h-24.34c-.53-1-1.05-1.9-1.58-2.84q-4.36-7.87-8.76-15.73c-18-32.29-36.22-64.46-54-97q-1.93-3.53-3.85-7.06c-.64-1.15-1.27-2.31-1.89-3.47Q1727.07,931,1715,907.78q14.71,22.32,29.83,44.22c.18.28.37.55.56.82,1.18,1.73,2.38,3.46,3.57,5.19,17.6,25.51,35.46,50.78,53.22,76.14,1.55,2.2,3.09,4.41,4.63,6.61Q1820.46,1060.3,1834,1080Z"/><path class="cls-10" d="M1893,1080h-22.11c-3.19-28.26-.79-51.54-13.35-126.57C1878.37,1028.5,1883.05,1051.51,1893,1080Z"/><path class="cls-10" d="M1920,925.93V1080h-18.4C1902.48,1019.82,1906.15,957.67,1920,925.93Z"/><path class="cls-10" d="M1755,1080h-7.93c-4.36-19.39-8.53-38.84-12.32-58.4C1741.22,1041.19,1748.05,1060.63,1755,1080Z"/><path class="cls-10" d="M1808.24,1080h-10.19q.48-9.18,1.25-18.57,1.1-13.37,2.85-27.28c1.52-12,3.44-24.34,5.84-37.15-1,15.11-1.32,29.65-1.21,43.76.08,12.44.54,24.54,1.28,36.4Z"/><polygon class="cls-11" points="1193.22 128.19 1024.6 303.84 1006.19 368.92 1070.11 435.63 1337.95 298.7 1394.57 249.87 1348.22 159.21 1193.22 128.19"/><polygon class="cls-12" points="1194.02 129.77 1179.67 206.68 1210.97 267.9 1251.17 294.04 1311.75 282.28 1394.57 249.87 1347.79 158.37 1194.02 129.77"/><polygon class="cls-13" points="1177.27 380.84 1252.49 294.68 1314.09 279.09 1394.57 249.87 1337.95 298.7 1177.27 380.84"/><polygon class="cls-14" points="1006.19 368.92 1071.68 434.82 1181.8 378.53 1252.49 294.68 1211.09 268.14 1097.03 348.31 1006.19 368.92"/><polygon class="cls-15" points="1024.6 303.84 1143.46 229.16 1148.53 176.88 1024.6 303.84"/><ellipse class="cls-16" cx="770" cy="880" rx="115" ry="30"/><polygon class="cls-17" points="867 1080 1532 1080 1011.92 563.78 769 626 663.48 876 867 1080"/><polygon class="cls-18" points="970.94 582.09 963.27 585.13 952.06 589.58 934.69 596.48 926.2 575.11 952.01 564.86 954.78 563.76 962.45 560.72 970.94 582.09"/><path class="cls-18" d="M990.48,578.51a19.39,19.39,0,0,1-9.62,8.25,18.9,18.9,0,0,1-3,.91,19.5,19.5,0,1,1,13.88-26.23q.26.63.45,1.26a16.91,16.91,0,0,1,.66,2.75A19.44,19.44,0,0,1,990.48,578.51Z"/><path class="cls-18" d="M980.89,539.58c-1.22,4.52-7.73,5.8-8,9.57a2.66,2.66,0,0,0,0,.49c.5,9.39-5.4,16.64-11.17,6.74a12.53,12.53,0,0,1-1-2.24c-2.7-7.62,2.67-15.86,9.4-20.1C974.69,531.1,982.43,533.85,980.89,539.58Z"/><path class="cls-18" d="M1003.68,549.52a18,18,0,0,1-11.44,13.18,15,15,0,0,1-8.22.82c-5.92-1.38-8.62-8.81-.73-11.84a18.31,18.31,0,0,1,4.27-1c5.7-.75,3.67-8.48,7.58-10.6C999.88,537.47,1005.43,542,1003.68,549.52Z"/><path class="cls-18" d="M1011.14,570a18.6,18.6,0,0,1-20.66,8.47,12.16,12.16,0,0,1-3.21-1.35c-5.76-3.6-5.47-12.88,5.63-11.71a19.88,19.88,0,0,1,2.12.32c5.82,1.17,6.41-7.06,10.94-7.83C1011.45,557,1015.36,563.28,1011.14,570Z"/><path class="cls-18" d="M996.29,592.47a15.6,15.6,0,0,1-18.38-4.8,9.92,9.92,0,0,1-1.31-2.27c-2.23-5.63,3.33-12.18,10.91-3.84a3.68,3.68,0,0,0,.41.39c3.31,2.87,7.58-1.91,10.89-.25C1003,583.81,1002.51,590,996.29,592.47Z"/><polygon class="cls-19" points="952.33 719 861.03 653.16 854.17 595.84 952 557.85 952.01 564.86 952.06 589.58 952.33 719"/><path class="cls-20" d="M1011.14,570a18.6,18.6,0,0,1-20.66,8.47,19.45,19.45,0,0,1-2.56,3.44c3.31,2.87,7.58-1.91,10.89-.25,4.18,2.11,3.7,8.3-2.52,10.77a15.6,15.6,0,0,1-18.38-4.8,19.45,19.45,0,0,1-14.64-2.54l-11.21,4.45L952.33,719,861,653.16l-6.86-57.32,97.83-38v7l2.77-1.1a19.54,19.54,0,0,1,5.84-9.62c-2.7-7.62,2.67-15.86,9.4-20.1,4.67-2.94,12.41-.19,10.87,5.54-1.22,4.52-7.73,5.8-8,9.57a19.43,19.43,0,0,1,10.45,2.53,18.31,18.31,0,0,1,4.27-1c5.7-.75,3.67-8.48,7.58-10.6,4.74-2.58,10.29,2,8.54,9.47a18,18,0,0,1-11.44,13.18,16.91,16.91,0,0,1,.66,2.75,19.88,19.88,0,0,1,2.12.32c5.82,1.17,6.41-7.06,10.94-7.83C1011.45,557,1015.36,563.28,1011.14,570Z"/><path class="cls-21" d="M844.56,563.85a70.24,70.24,0,0,1-6.77,13q-1.26,1.92-2.71,3.83c-21.12,27.77-55,29.76-65.08,29.78h-1.89c-7.92-.16-34.62-1.15-55.82-22.32a72.59,72.59,0,0,1-9.72-12,75.1,75.1,0,0,1-6.39-12.27A88.78,88.78,0,0,1,690,528.6a87,87,0,0,1,5.56-29.2,90.07,90.07,0,0,1,31.65-41.5c6.39-4.55,20.55-14.35,40.94-14.88.3,0,.59,0,.89,0h1c21.26,0,36.37,10.39,42.76,14.9,16.76,11.82,26,27.74,31,41.5A100.19,100.19,0,0,1,850,528.6C850.18,535.18,850.44,549,844.56,563.85Z"/><path class="cls-18" d="M844.56,563.85a70.24,70.24,0,0,1-6.77,13q-1.26,1.92-2.71,3.83c-21.12,27.77-55,29.76-65.08,29.78h-1.89c-7.92-.16-34.62-1.15-55.82-22.32a72.59,72.59,0,0,1-9.72-12,75.1,75.1,0,0,1-6.39-12.27A88.78,88.78,0,0,1,690,528.6a87,87,0,0,1,5.56-29.2,90.07,90.07,0,0,1,31.65-41.5c6.39-4.55,20.55-14.35,40.94-14.88.3,0,.59,0,.89,0h1c21.26,0,36.37,10.39,42.76,14.9,16.76,11.82,26,27.74,31,41.5A100.19,100.19,0,0,1,850,528.6C850.18,535.18,850.44,549,844.56,563.85Z"/><path class="cls-21" d="M844.56,563.85a70.24,70.24,0,0,1-6.77,13q-1.26,1.92-2.71,3.83c-21.12,27.77-55,29.76-65.08,29.78h-1.89c-7.92-.16-34.62-1.15-55.82-22.32a72.59,72.59,0,0,1-9.72-12,75.1,75.1,0,0,1-6.39-12.27A88.78,88.78,0,0,1,690,528.6a87,87,0,0,1,5.56-29.2,90.07,90.07,0,0,1,31.65-41.5c6.39-4.55,20.55-14.35,40.94-14.88.3,0,.59,0,.89,0h1c21.26,0,36.37,10.39,42.76,14.9,16.76,11.82,26,27.74,31,41.5A100.19,100.19,0,0,1,850,528.6C850.18,535.18,850.44,549,844.56,563.85Z"/><polygon class="cls-18" points="570.15 499.4 698.25 499.4 699.05 563.85 660.88 563.85 570.15 499.4"/><polygon class="cls-18" points="964.67 499.4 873.93 563.85 835.77 563.85 836.57 499.4 964.67 499.4"/><path class="cls-19" d="M873.7,628.33V876H664.48V628.33a55.05,55.05,0,0,1,38.09-52.21,54.09,54.09,0,0,1,16.76-2.64h99.53a54.3,54.3,0,0,1,18.93,3.39A55.05,55.05,0,0,1,873.7,628.33Z"/><path class="cls-20" d="M844.56,563.85a70.24,70.24,0,0,1-6.77,13,55.05,55.05,0,0,1,35.91,51.46V876H770V443c21.26,0,36.37,10.39,42.76,14.9,16.76,11.82,26,27.74,31,41.5H964.67l-90.74,64.45Z"/><path class="cls-22" d="M1803.15,592.47C1738,580,1742,534,1704,526s-60.89,38.9-172.44,48S1379,530,1293,550s-81,69-129,80-80-21-141-7S922,759,885,775a92,92,0,0,0-14.89,8.9C821.89,817.57,717.5,920.07,664.94,907.78,606,894,554.14,912.43,529.57,872.72c-11.87-19.2-8.77-42.36-2.81-63.11,6.36-22.19,16-41.62,14-50.47C537,742,506,723.72,483,723c-32-1-121-23-161,15s-46.92,44.22-79,63.11c-6.69,3.95-15.17,7-24.39,9.49-16,4.25-34.29,6.5-49.39,7.69-17.82,1.41-31.21,1.34-31.21,1.34s-47.92,11-84.19,16.72c-3.87.6-7.6,1.15-11.12,1.62-12.63,1.66-22.64,2.31-26.74,1L0,834v86.86s1.35-1,3.93-2.68c4.46-2.94,12.6-8.06,23.73-14.07q3.06-1.65,6.42-3.39l.86-.44c3.65-1.87,7.55-3.79,11.68-5.73a375.19,375.19,0,0,1,54.26-20.61l.12,0c24.81-7.21,52.87-12.37,82.63-12.52,4,0,8,0,12.09.21,107.28,4.4,237.6,71,291.44,46.18s104.37,103.47,271.61,6.34c68.77-39.94,128.42-67.43,179.61-89.1,73.29-31,129.23-50.13,169.77-76.77C1177,703,1210,732,1250,717s177,2,210-41,66-63,107-72,131.08-14,188,11.5,165-11.92,165-11.92V572.72S1868.29,604.94,1803.15,592.47ZM381.48,851.06q-2.31-1-4.48-2.06c-34.63-16.57-86-11-86-32s71.18-95.88,104.5-59c29.71,32.88,53.26,29.82,67.87,21.35a17.15,17.15,0,0,1,25.23,10.34c3.18,12,4.54,22.29,4.38,31C492,879.79,422.52,869.14,381.48,851.06ZM1440.6,652c-32.77-2.09-54.6,25-54.6,25-52,12-103,0-103,0s-45-22-54.34-35.59c-10.53-15.33,51.11-84.58,106.21-61.83C1394,604,1431,589,1448,608,1448,608,1472,654,1440.6,652Z"/><path class="cls-23" d="M125.41,133.65V70.35H106.68V43.51h96V70.35H154.74V80.72h31V96.44h-31v37.21Z"/><path class="cls-23" d="M208.3,133.65V70.35H189.57V43.51h96V70.35H237.63V80.72h31V96.44h-31v10.37h55.56v26.84Z"/><path class="cls-23" d="M293.19,133.65V70.35H274.46V43.51h96V70.35H322.52V80.72h31V96.44h-31v10.37h55.55v26.84Z"/><path class="cls-23" d="M378.07,133.65V70.35H359.35V43.51h48.06v63.3h48.81v26.84Z"/><path class="cls-23" d="M246.12,196.91v26.84H217.54V287H188.2V223.75H159.61V196.91Z"/><path class="cls-23" d="M291.69,228V196.91H321V287H291.69V254.59h-23.6V287H238.76V223.75H220V196.91h48.06V228Z"/><path class="cls-23" d="M327.27,287V223.75H308.54V196.91h96v26.84H356.6v10.36h31v15.73h-31V260.2h55.55V287Z"/><path class="cls-23" d="M91.42,440.44V377.15H72.7V350.31h96v26.84H120.76v10.36h31v15.73h-31v37.2Z"/><path class="cls-23" d="M274.68,395.87q0,14.81-6.18,25.22a38.46,38.46,0,0,1-17.88,15.67Q238.92,442,222.69,442t-27.87-5.27a37.8,37.8,0,0,1-17.64-15.61q-6-10.32-6-25.25A53.48,53.48,0,0,1,174.62,376a37.82,37.82,0,0,1,10-14.45,44,44,0,0,1,16.23-8.89,72.4,72.4,0,0,1,21.79-3q16.16,0,27.9,5.34a39,39,0,0,1,17.91,15.73Q274.68,381.09,274.68,395.87Zm-71.47.25a28.57,28.57,0,0,0,3.9,15.11q3.9,6.42,15.39,6.43,8.87,0,13.26-3.37a14.13,14.13,0,0,0,5.5-7.71,58.77,58.77,0,0,0,1.46-10.46A32,32,0,0,0,238.54,381q-3.81-6.47-16-6.46Q203.21,374.53,203.21,396.12Z"/><path class="cls-23" d="M279,440.44V350.31h58.67q10.86,1,17.85,5.74a27.63,27.63,0,0,1,10.24,12.73q2.49,12,.25,18.48a23.08,23.08,0,0,1-7.87,10.86q-5.61,4.36-16.1,6.87l6.74,8.61h27v26.84H340.16l-28.59-29.77v29.77Zm32.58-67.66v16.6h22.72a7.39,7.39,0,0,0,3.93-1.34q2.11-1.34,2.25-6.77c-.21-3.46-1.05-5.73-2.53-6.84a6.79,6.79,0,0,0-3.71-1.65Z"/><path class="cls-23" d="M436.4,413.6h28.22v26.84H424.67a65.35,65.35,0,0,1-26.53-5.21,42,42,0,0,1-18.69-15.64q-6.84-10.43-6.84-25.53a42.54,42.54,0,0,1,4.09-18.94A38.55,38.55,0,0,1,388,361.26,50.11,50.11,0,0,1,404.66,353a71.77,71.77,0,0,1,20-2.71h39.95v26.84H436.4a127.62,127.62,0,0,0-14,.56,36.24,36.24,0,0,0-8.11,1.87,15.1,15.1,0,0,0-6.31,4.56q-2.74,3.24-3.18,11.48.32,8,3.18,11.43a13.69,13.69,0,0,0,7,4.55,51.69,51.69,0,0,0,8.49,1.56Q427.79,413.6,436.4,413.6Z"/><path class="cls-23" d="M468.36,440.44V350.31h77.27v26.84H497.7v10.36h31v15.73h-31V413.6h55.55v26.84Z"/><path class="cls-23" d="M1454.49,817.75h-33.26q-18.82-.59-5.56,10.4Q1439.4,849,1439,868.58T1415.67,892h-92.29V860.53h58.3q20.73.59,5.28-11.57-25.5-23.44-21.68-43.07t24-19.63h65.19Z"/><path class="cls-23" d="M1532.49,786.26v31.49h-33.55V892h-34.42V817.75H1431V786.26Z"/><path class="cls-23" d="M1513.59,817.75V786.26h88.77L1637.74,892h-40l-6.67-19h-31.42L1553,892h-37.94l24.39-74.27Zm62.62-8-15.16,41.89h29.15Z"/><path class="cls-23" d="M1636.27,892V786.26h68.85q12.75,1.17,21,6.74a32.33,32.33,0,0,1,12,14.94q2.93,14.05.29,21.68a27,27,0,0,1-9.23,12.74q-6.59,5.13-18.89,8.06l7.91,10.11h56.54V892h-66.65l-33.54-34.94V892Zm38.24-79.39v19.48h26.66a8.85,8.85,0,0,0,4.61-1.57q2.49-1.57,2.64-7.95c-.25-4.05-1.24-6.73-3-8a7.89,7.89,0,0,0-4.36-1.94Z"/><path class="cls-23" d="M1835.35,786.26v31.49H1801.8V892h-34.42V817.75h-33.55V786.26Z"/><path class="cls-24" d="M1443.49,822.75h-33.26q-18.82-.59-5.56,10.4Q1428.4,854,1428,873.58T1404.67,897h-92.29V865.53h58.3q20.73.59,5.28-11.57-25.5-23.44-21.68-43.07t24-19.63h65.19Z"/><path class="cls-24" d="M1521.49,791.26v31.49h-33.55V897h-34.42V822.75H1420V791.26Z"/><path class="cls-24" d="M1502.59,822.75V791.26h88.77L1626.74,897h-40l-6.67-19h-31.42L1542,897h-37.94l24.39-74.27Zm62.62-8-15.16,41.89h29.15Z"/><path class="cls-24" d="M1625.27,897V791.26h68.85q12.75,1.17,21,6.74a32.33,32.33,0,0,1,12,14.94q2.93,14.05.29,21.68a27,27,0,0,1-9.23,12.74q-6.59,5.13-18.89,8.06l7.91,10.11h56.54V897h-66.65l-33.54-34.94V897Zm38.24-79.39v19.48h26.66a8.85,8.85,0,0,0,4.61-1.57q2.49-1.57,2.64-7.95c-.25-4.05-1.24-6.73-3-8a7.89,7.89,0,0,0-4.36-1.94Z"/><path class="cls-24" d="M1824.35,791.26v31.49H1790.8V897h-34.42V822.75h-33.55V791.26Z"/></svg>