<svg id="Layer_1" data-name="Layer 1" xmlns="http://www.w3.org/2000/svg" viewBox="0 0 401.65 466"><defs><style>.cls-1{opacity:0.2;}.cls-2{fill:#7ea97d;}.cls-3{fill:#5b915a;}.cls-4{fill:#d6cfa3;}.cls-5{fill:#877b58;}.cls-6{fill:#c1bb91;}.cls-7{fill:#432b17;}</style></defs><ellipse class="cls-1" cx="199.85" cy="443" rx="131.79" ry="23"/><polygon class="cls-2" points="129.02 120.85 90.91 120.85 12.41 65 0.32 56.4 128.22 56.4 129.02 120.85"/><polygon class="cls-3" points="127.97 65 127.97 120.85 91.03 121 12.41 65 127.97 65"/><polygon class="cls-2" points="389.6 56.4 377.5 65 299.01 120.85 260.9 120.85 261.7 56.4 389.6 56.4"/><polygon class="cls-3" points="377.5 65 298.89 121 268.29 120.88 261.95 120.85 261.95 65 377.5 65"/><path class="cls-4" d="M298.39,191.33V439H89.51V191.33a54.41,54.41,0,0,1,7.62-27.82,55.12,55.12,0,0,1,12.73-14.76c.22-.19.45-.37.68-.55a54.29,54.29,0,0,1,19.69-9.87,51.6,51.6,0,0,1,8.29-1.54.17.17,0,0,1,.1,0l.84-.09h.1c1.56-.13,3.12-.2,4.71-.2h99.37l1.51,0a53.51,53.51,0,0,1,13.09,2,54.25,54.25,0,0,1,16.81,8,55.48,55.48,0,0,1,13.69,13.86c.43.62.84,1.24,1.24,1.88A54.42,54.42,0,0,1,298.39,191.33Z"/><polygon class="cls-5" points="145.94 150 190.87 229 236.79 149 145.94 150"/><path class="cls-5" d="M209.13,259.1l-.06.1L192.9,287.25l-.8,1.38-.79-.46-.82.47-.81-1.41-16.21-28.12-56-97.11-7.95-13.8a54.39,54.39,0,0,1,28.92-11.51h.1L153.16,162l38.15,66.18,0,0Z"/><path class="cls-6" d="M209.07,259.2,192.9,287.25l-1.59.92-.82.47-.08.05-.9-1.56-16.1-27.92-56-97.21h.11l-7.95-13.8a54.39,54.39,0,0,1,28.92-11.51L153,162l38.21,66.28,0,0Z"/><path class="cls-6" d="M274.05,146.47,265.1,162l-56,97.1-.06.1L192.9,287.25l-.8,1.38-.79-.46-1.63-.94-.17-.1-16.1-27.92.06-.1L190.85,229l.4-.69.06-.1L229.45,162l14.7-25.5A54.21,54.21,0,0,1,274.05,146.47Z"/><path class="cls-6" d="M153.16,162H117.49l-7.95-13.8a54.39,54.39,0,0,1,28.92-11.51h.1Z"/><path class="cls-6" d="M274.05,146.47,265.1,162H229.45l14.7-25.5A54.21,54.21,0,0,1,274.05,146.47Z"/><path class="cls-2" d="M268.3,120.85s0,0,0,0a71,71,0,0,1-9.45,16.82l-.6.78-.18.23a71.43,71.43,0,0,1-27.3,21l-.17.08A93.67,93.67,0,0,1,192,167.46a91.41,91.41,0,0,1-18.08-2.07,78.43,78.43,0,0,1-24.42-9.78l-.18-.11-.35-.22a72.67,72.67,0,0,1-12.7-10.14,75,75,0,0,1-6-6.81l-.17-.22a73.92,73.92,0,0,1-9.88-17.23l0,0A88.9,88.9,0,0,1,114,85.6,86.31,86.31,0,0,1,116.78,65a83.44,83.44,0,0,1,2.72-8.6,90,90,0,0,1,31.6-41.5A79.68,79.68,0,0,1,173.89,3.06,65.28,65.28,0,0,1,192,0c22.22-.59,38,10.24,44.58,14.88,16.74,11.82,25.93,27.74,31,41.5,1.1,3,2,5.88,2.75,8.6a95,95,0,0,1,3.41,20.6C273.91,92.18,274.17,106,268.3,120.85Z"/><path class="cls-4" d="M331.54,212l-3.65,71.24a5,5,0,0,1-2.53,4.09,4.83,4.83,0,0,1-2.47.66H300a4.79,4.79,0,0,1-1.57-.26,5,5,0,0,1-3.42-5l3.33-64.8a5,5,0,0,0-.95-3.19L279.84,190.5a5,5,0,0,1-.93-3.34L280.76,164a5,5,0,0,1,8-3.62,5.09,5.09,0,0,1,.8.75l40.79,47.4A5.05,5.05,0,0,1,331.54,212Z"/><path class="cls-4" d="M99.14,161.18,58.49,208.41a5.07,5.07,0,0,0-1.21,3.69l5.47,71.23a5.05,5.05,0,0,0,5,4.67H88.74a5.06,5.06,0,0,0,5.05-5.32L90.46,218a5.07,5.07,0,0,1,1-3.22l17.49-24.22a5.07,5.07,0,0,0,.95-3.37L108,164.08A5.06,5.06,0,0,0,99.14,161.18Z"/><path class="cls-2" d="M331.64,301a18,18,0,0,1-15,17.74,17.32,17.32,0,0,1-3,.26,17.9,17.9,0,0,1-12-4.59,17.59,17.59,0,0,1-3.3-3.94,18,18,0,0,1,0-18.94,17.41,17.41,0,0,1,2.86-3.53,18,18,0,0,1,30.39,13Z"/><ellipse class="cls-2" cx="77.05" cy="301" rx="17.97" ry="18"/><path class="cls-7" d="M316.66,308V435a4,4,0,0,1-4,4H305.7a4,4,0,0,1-4-4V308a4,4,0,0,1,4-4h6.95A4,4,0,0,1,316.66,308Z"/><path class="cls-1" d="M258.84,137.7l-.6.78a54.25,54.25,0,0,1,16.81,8,55.48,55.48,0,0,1,13.69,13.86,5.09,5.09,0,0,1,.8.75l40.79,47.4a5.05,5.05,0,0,1,1.21,3.53l-3.65,71.24a5,5,0,0,1-2.53,4.09,18,18,0,0,1-8.7,31.4V435a4,4,0,0,1-4,4H305.7a4,4,0,0,1-4-4V314.41a17.59,17.59,0,0,1-3.3-3.94V439H173.89V3.06A65.28,65.28,0,0,1,192,0c22.22-.59,38,10.24,44.58,14.88,16.74,11.82,25.93,27.74,31,41.5H389.6L377.51,65l-78.62,56-30.6-.12A71,71,0,0,1,258.84,137.7Z"/></svg>